<svg width="44" height="44" viewBox="0 0 44 44" fill="none" xmlns="http://www.w3.org/2000/svg">
<path d="M16.3125 8.15625C16.3125 10.3194 15.4532 12.394 13.9236 13.9236C12.394 15.4532 10.3194 16.3125 8.15625 16.3125C5.99308 16.3125 3.9185 15.4532 2.38891 13.9236C0.859317 12.394 0 10.3194 0 8.15625C0 5.99308 0.859317 3.9185 2.38891 2.38891C3.9185 0.859317 5.99308 0 8.15625 0C10.3194 0 12.394 0.859317 13.9236 2.38891C15.4532 3.9185 16.3125 5.99308 16.3125 8.15625V8.15625ZM2.71875 8.15625C2.71875 9.59836 3.29163 10.9814 4.31136 12.0011C5.33109 13.0209 6.71414 13.5937 8.15625 13.5938C9.59836 13.5937 10.9814 13.0209 12.0011 12.0011C13.0209 10.9814 13.5937 9.59836 13.5938 8.15625C13.5937 6.71414 13.0209 5.33109 12.0011 4.31136C10.9814 3.29163 9.59836 2.71875 8.15625 2.71875C6.71414 2.71875 5.33109 3.29163 4.31136 4.31136C3.29163 5.33109 2.71875 6.71414 2.71875 8.15625V8.15625Z" fill="#ffffff26"/>
<path d="M24.4688 16.3125H25.8281C27.147 16.3123 28.4209 16.7915 29.4127 17.6608C30.4046 18.5301 31.0466 19.7302 31.2194 21.0377L39.6747 17.2804C40.0886 17.096 40.542 17.0179 40.9937 17.0533C41.4454 17.0887 41.8811 17.2365 42.2612 17.4831C42.6413 17.7297 42.9537 18.0674 43.17 18.4655C43.3864 18.8636 43.4998 19.3095 43.5 19.7626V40.0499C43.4996 40.5026 43.3862 40.9481 43.1699 41.3459C42.9537 41.7437 42.6416 42.0812 42.2619 42.3277C41.8822 42.5743 41.4469 42.7221 40.9956 42.7578C40.5443 42.7935 40.0912 42.7159 39.6774 42.5321L31.2194 38.7748C31.0466 40.0823 30.4046 41.2824 29.4127 42.1517C28.4209 43.021 27.147 43.5002 25.8281 43.5H5.4375C3.99539 43.5 2.61234 42.9271 1.59261 41.9074C0.572878 40.8877 0 39.5046 0 38.0625V21.75C0 20.3079 0.572878 18.9248 1.59261 17.9051C2.61234 16.8854 3.99539 16.3125 5.4375 16.3125H24.4688ZM40.7812 40.0472V19.7653L31.2656 23.993V35.8195L40.7812 40.0499V40.0472ZM2.71875 21.75V38.0625C2.71875 38.7836 3.00519 39.4751 3.51505 39.9849C4.02492 40.4948 4.71644 40.7812 5.4375 40.7812H25.8281C26.5492 40.7812 27.2407 40.4948 27.7506 39.9849C28.2604 39.4751 28.5469 38.7836 28.5469 38.0625V21.75C28.5469 21.0289 28.2604 20.3374 27.7506 19.8276C27.2407 19.3177 26.5492 19.0312 25.8281 19.0312H5.4375C4.71644 19.0312 4.02492 19.3177 3.51505 19.8276C3.00519 20.3374 2.71875 21.0289 2.71875 21.75V21.75Z" fill="#ffffff26"/>
<path d="M24.4688 16.3125C26.6319 16.3125 28.7065 15.4532 30.2361 13.9236C31.7657 12.394 32.625 10.3194 32.625 8.15625C32.625 5.99308 31.7657 3.9185 30.2361 2.38891C28.7065 0.859317 26.6319 0 24.4688 0C22.3056 0 20.231 0.859317 18.7014 2.38891C17.1718 3.9185 16.3125 5.99308 16.3125 8.15625C16.3125 10.3194 17.1718 12.394 18.7014 13.9236C20.231 15.4532 22.3056 16.3125 24.4688 16.3125V16.3125ZM19.0312 8.15625C19.0312 6.71414 19.6041 5.33109 20.6239 4.31136C21.6436 3.29163 23.0266 2.71875 24.4688 2.71875C25.9109 2.71875 27.2939 3.29163 28.3136 4.31136C29.3334 5.33109 29.9063 6.71414 29.9062 8.15625C29.9063 9.59836 29.3334 10.9814 28.3136 12.0011C27.2939 13.0209 25.9109 13.5937 24.4688 13.5938C23.0266 13.5937 21.6436 13.0209 20.6239 12.0011C19.6041 10.9814 19.0313 9.59836 19.0312 8.15625V8.15625Z" fill="#ffffff26"/>
</svg>
